<svg width="925" height="599" viewBox="0 0 925 599" fill="none" xmlns="http://www.w3.org/2000/svg">
<path d="M479.021 181.243C478.839 180.367 478.633 179.499 478.426 178.648L478.385 178.466C477.641 175.351 476.931 172.401 477.228 169.633C477.335 168.633 479.137 167.203 480.583 166.055C481.004 165.724 481.426 165.386 481.839 165.038L483.888 167.261L484.789 167.088C484.83 167.088 485.921 166.906 485.921 166.906C484.301 172.145 482.872 176.781 481.459 181.358L479.021 181.243Z" fill="#EAE7DD"/>
<path d="M814.089 165.634L814.213 161.494L761.088 178.905L761.378 176.351C762.41 167.129 766.046 155.371 769.104 146.149C773.508 132.845 778.069 119.087 776.028 104.163L775.921 103.403L770.913 100.651L768.476 100.85L768.153 99.0234L757.965 110.245C753.585 115.443 750.495 121.64 748.049 127.019C743.959 136.026 739.967 145.166 736.208 154.173C734.224 158.916 732.266 163.766 730.374 168.46L730.291 168.666C727.721 175.046 725.052 181.648 722.284 188.085C721.433 190.068 719.979 191.663 718.549 193.241C717.938 193.911 717.359 194.547 716.838 195.208L716.235 195.968C715.706 197.183 715.145 198.389 714.525 199.563C714.004 200.538 713.451 201.587 712.657 202.381C712.236 202.802 711.657 203.124 711.203 202.612C710.947 202.959 710.658 203.281 710.352 203.579C708.856 205.017 707.005 206.058 705.27 207.182C703.592 208.272 702.089 209.603 700.411 210.693C698.684 211.817 696.759 212.801 694.693 213.048C692.842 213.272 693.462 213.23 692.123 211.867C690.313 210.032 690.553 207.074 691.032 204.76C691.693 201.562 691.933 199.1 693.305 196.15C693.957 194.745 694.271 192.911 694.941 191.514C695.445 190.465 694.908 189.473 694.924 189.457C694.933 189.415 695.23 187.581 695.263 187.548C695.42 187.424 695.577 187.3 695.742 187.176C699.626 173.467 704.543 156.147 707.352 146.256L704.766 141.695L702.997 142.844L702.146 141.265C700.056 137.398 698.874 136.035 697.651 136.035C696.156 136.035 693.693 137.671 690.239 140.365C690.553 141.075 690.826 141.918 690.487 142.811L689.495 145.422C687.446 150.818 685.322 156.395 682.918 161.791C680.447 167.319 677.819 172.864 675.274 178.235C674.117 180.681 672.944 183.152 671.787 185.631C671.589 186.151 671.39 186.672 671.225 187.201C670.787 188.573 670.448 189.969 670.167 191.374C669.887 192.762 669.721 194.167 669.457 195.563C668.928 198.414 668.308 201.248 667.705 204.083C667.102 206.925 666.515 209.768 666.052 212.635C665.821 214.065 665.623 215.503 665.474 216.94C665.342 218.213 665.226 219.486 665.243 220.766C665.259 222.65 665.565 224.526 666.267 226.278C666.887 227.815 667.812 229.22 668.953 230.418C671.324 232.889 674.489 234.45 677.679 235.591C680.397 236.566 683.199 237.26 686.008 237.888L701.659 234.541L696.883 242.524L696.503 242.738C682.529 250.679 636.842 258.819 634.644 259.265L631.826 259.835L637.627 242.763L637.668 242.656L637.701 242.573C638.023 241.871 640.42 234.946 642.337 229.385L642.419 229.154C645.667 219.733 646.873 216.288 647.196 215.66C648.385 213.321 649.418 211.305 650.311 209.214C652.071 205.091 653.823 200.877 655.508 196.795L655.583 196.621C658.244 190.184 661.003 183.54 663.904 177.054C664.887 174.856 666.052 172.715 667.184 170.641C671.308 163.056 674.878 156.503 670.118 148.595L660.359 140.736L661.433 139.447C662.755 137.861 664.168 136.307 665.54 134.812C666.3 133.977 667.11 133.143 667.92 132.3L667.986 132.234C670.44 129.697 672.969 127.069 674.456 124.276L675.431 114.054L666.54 115.641L665.647 115.137L617.638 215.974C618.258 217.304 618.191 219.32 618.134 221.295C618.125 221.634 618.109 222.047 618.109 222.386L618.811 222.7L611.118 239.739L606.78 228.583L573.818 238.392L576.462 234.541C576.925 233.872 591.699 216.147 598.607 208.512L604.036 202.521L606.474 197.513C605.202 196.191 604.384 194.72 603.648 193.398C603.045 192.308 602.466 191.266 601.69 190.391C601.467 190.771 601.144 191.283 600.607 191.762L599.302 192.927L597.55 190.738C592.617 193.423 581.213 196.15 579.552 196.538L540.822 209.115L554.209 191.357L548.077 187.887L556.027 185.928L554.787 184.928L557.671 183.144L553.267 178.566L549.962 179.152L549.193 177.351C533.485 182.036 521.982 185.804 510.86 189.449L510.727 189.49C499.812 193.068 488.524 196.77 473.51 201.24L472.989 201.397L472.435 201.199L475.782 205.752L471.568 204.884C470.832 204.736 470.122 204.636 469.543 204.554C467.882 204.322 466.568 204.141 466.18 202.794C465.808 201.488 465.85 200.183 465.891 198.918L465.907 198.232V197.489L470.32 172.74L469.039 175.128L467.502 173.98C466.428 173.178 465.379 172.31 464.304 171.435C460.999 168.708 457.884 166.138 454.669 166.138C452.587 166.138 450.472 167.245 448.232 169.517C448.745 174.789 443.208 187.317 437.763 194.605L441.068 195.753L436.862 209.181L432.879 207.942L430.317 208.603L433.763 198.91C433.391 199.191 433.036 199.431 432.681 199.621L431.607 200.075L430.747 199.364L430.673 199.307L430.251 199.001C429.681 198.596 429.037 198.133 428.516 197.472C422.418 189.812 414.13 185.92 403.883 185.92C403.412 185.92 402.941 185.92 402.462 185.945C393.777 186.251 384.332 187.515 374.383 189.696C361.592 192.506 348.891 196.266 338.157 199.563C334.596 200.662 331.175 202.389 328.15 203.934L328.002 204.041L327.878 204.075C326.812 204.62 325.795 205.132 324.828 205.587L321.911 211.173L317.788 208.297L317.739 207.785L313.499 209.38L314.02 212.305L312.491 212.577L309.682 214.726L324.052 221.221L326.283 225.724L325.919 226.46C324.638 229.054 323.316 231.624 321.92 234.351L321.845 234.492C318.672 240.689 315.392 247.101 312.533 253.671C306.195 268.247 300.303 283.179 295.37 295.871C291.792 305.093 288.346 314.505 285.024 323.611L284.983 323.743V323.768C283.462 327.9 281.959 332.023 280.43 336.147C280.141 336.923 279.917 337.857 279.67 338.865C279.042 341.443 278.389 344.104 276.364 345.112C271.216 347.657 265.597 349.31 260.143 350.896L260.061 350.93L259.986 350.946C259.986 350.946 258.309 351.434 257.673 351.624C255.855 352.161 253.996 352.285 251.938 352.417C251.07 352.475 250.17 352.533 249.244 352.632L246.212 352.954L247.6 350.235C250.641 344.261 253.682 338.336 256.698 332.436L257.524 330.825C265.688 314.877 273.406 299.805 281.107 284.319C283.644 279.213 285.991 273.874 288.255 268.718L288.296 268.627C290.461 263.694 292.701 258.587 295.122 253.662C296.006 251.869 297.65 250.696 299.245 249.547C300.196 248.87 301.096 248.225 301.766 247.498C302.939 246.234 304.278 245.077 305.575 243.961L305.616 243.92C309.591 240.499 313.012 237.541 311.855 232.046C311.491 230.319 310.136 228.633 308.566 226.691L308.525 226.642C307.715 225.642 306.881 224.609 306.104 223.468L305.939 223.221L305.74 222.411L308.517 215.602L306.914 216.825L305.906 215.552L304.22 213.437L305.963 211.164L302.972 210.156L302.856 210.09C299.931 208.545 296.18 206.777 293.114 206.777C292.428 206.777 291.784 206.867 291.213 207.049C279.637 210.669 256.028 219.824 255.822 219.899C253.88 220.708 249.409 222.551 249.409 222.551C233.503 229.121 209.473 239.706 202.689 242.705L203.813 244.317L197.533 248.589L196.31 246.763C195.384 247.391 194.434 248.027 193.467 248.671L193.401 248.721C192.194 249.523 190.938 250.365 189.6 251.274L189.096 253.307L192.145 254.687L189.294 261.951L202.317 264.049L201.978 265.735C201.788 266.685 202.35 270.222 202.978 272.965L203.3 274.37L201.953 274.883C201.524 275.048 158.695 291.401 149.283 294.797L146.151 295.929L147.143 292.756C147.3 292.268 150.035 283.584 153.993 275.114L153.539 275.527L150.985 273.503C152.018 271.643 152.944 269.941 153.803 268.346V268.322C155.563 265.091 157.076 262.298 158.712 259.554C159.497 258.24 160.166 256.778 160.877 255.224C163.223 250.076 165.884 244.251 173.495 244.226L173.214 243.904L215.522 207.256L213.985 205.727L222.438 202.587L221.744 199.571L245.385 193.803L245.113 198.447L271.448 190.944L272.257 195.481L293.106 185.052L294.37 178.921C294.593 177.83 294.667 176.789 294.585 175.839L294.494 174.789L295.403 174.261C297.254 173.195 298.964 171.732 300.782 170.187L300.832 170.145C301.542 169.542 302.27 168.923 303.005 168.319L302.005 166.088L287.098 168.675L287.148 168.741L284.619 169.245C270.58 172.054 223.537 181.499 207.754 184.937L205.928 185.333L205.738 183.201L202.813 185.16L201.02 183.201C200.045 184.143 199.119 185.044 198.227 185.92L198.128 186.011C195.582 188.49 193.178 190.837 190.707 193.018C184.113 198.827 177.502 204.62 170.842 210.445L170.743 210.528C160.802 219.229 150.523 228.228 140.392 237.227C139.202 238.284 138.301 239.805 137.351 241.416C137.145 241.763 136.938 242.119 136.723 242.466L137.797 243.309L110.132 307.44L113.867 312.1C123.246 318.926 139.111 329.627 146.73 334.725L148.953 333.742C154.059 331.486 157.77 329.941 161.744 328.288C163.537 327.544 165.364 326.784 167.355 325.941L165.306 320.983L225.297 291.302L225.553 291.839L227.322 289.649L229.04 290.723L230.602 291.715L210.027 339.667C210.093 339.915 210.167 340.212 210.258 340.543L211.423 339.89L218.166 350.227C223.355 347.525 225.653 342.013 228.28 335.7C230.594 330.139 233.213 323.842 238.337 318.761L241.006 320.628C240.287 322.198 239.659 323.454 239.105 324.561C238.196 326.404 237.535 327.734 237.163 329.048C235.924 333.411 234.726 337.857 233.577 342.137L233.486 342.493L233.47 342.534C232.205 347.228 230.9 352.078 229.536 356.838C229.156 358.143 228.115 359.061 227.272 359.804C227.008 360.036 226.702 360.3 226.504 360.523L226.272 360.779L175.585 383.156L179.039 383.14L177.535 390.849L176.602 395.609L173.181 391.37L165.19 395.262C163.637 396.014 160.629 397.609 157.968 399.005L157.604 399.195C156.059 400.005 154.431 400.873 153.035 401.592C153.134 401.658 153.233 401.724 153.332 401.798C154.117 401.559 155.167 401.286 155.968 401.286C156.481 401.286 156.877 401.385 157.183 401.542L178.899 400.063L176.858 396.898L183.097 394.196L183.502 394.229C185.435 394.37 187.418 394.444 189.385 394.444C205.771 394.444 221.248 389.428 236.221 384.586L236.362 384.545C246.212 381.355 256.4 378.066 266.861 376.166L269.58 375.678L268.729 378.306C268.275 379.711 267.837 381.041 267.399 382.38C266.539 385.007 265.721 387.486 264.969 389.965C264.391 391.882 263.804 393.799 263.217 395.716L261.862 400.121C259.086 409.153 256.21 418.498 253.715 427.753C251.409 436.297 249.74 445.197 248.12 453.824L248.087 453.989C247.567 456.757 246.972 459.6 246.451 462.104L246.435 462.17C244.79 470.053 243.08 478.209 242.931 486.175C242.906 487.612 242.824 491.975 243.989 493.174C244.179 493.364 244.501 493.587 245.319 493.587C247.038 493.587 249.798 492.587 252.26 491.612C252.5 491.513 252.748 491.463 253.012 491.463C253.277 491.463 253.492 491.513 253.632 491.546H253.682L254.318 491.612L254.764 492.141C255.21 492.67 255.648 493.207 256.094 493.744L262.961 492.521L268.919 470.003L270.597 471.507C271.439 468.111 272.249 464.756 272.985 461.707C275.166 452.667 277.43 443.321 280.132 434.281C283.694 422.374 287.611 410.367 291.387 398.782L291.412 398.7C292.726 394.675 294.271 389.263 295.783 383.983C297.097 379.397 298.336 375.067 299.427 371.596L299.675 370.803L318.234 364.3L316.59 372.563C315.896 376.033 315.202 379.496 314.541 382.966C313.012 390.932 307.013 392.254 302.6 392.543C302.088 392.742 300.997 393.882 300.543 394.593C301.741 396.873 303.27 399.088 304.897 401.426L305.79 402.715L307.715 405.566L298.237 413.21C298.634 413.582 299.039 413.962 299.452 414.334C301.691 416.399 304.005 418.523 305.013 421.316C306.302 424.886 306.848 428.712 307.376 432.405L307.393 432.521C307.533 433.521 307.682 434.546 307.839 435.57L313.342 434.587L313.557 435.81L313.954 435.256L322.705 443.156L328.844 443.933C329.109 443.016 329.382 442.073 329.662 441.115L329.704 440.966C330.654 437.702 331.637 434.331 332.406 430.893C332.736 429.414 332.968 427.861 333.199 426.365C334.216 419.647 335.372 412.028 345.313 409.367C348.461 408.525 351.453 407.169 354.659 405.715C356.229 405.004 357.857 404.269 359.493 403.608C367.178 400.501 374.879 397.41 382.093 394.51L392.174 390.461L393.571 421.63L402.842 435.141L411.494 437.049L428.987 378.537L430.483 384.231C430.805 385.437 431.788 389.527 431.962 390.321C432.144 391.163 432.292 391.973 432.441 392.767C432.838 394.89 433.177 396.716 434.061 398.642L434.532 399.675C436.003 402.889 439.911 411.442 441.96 411.863C444.506 412.392 447.29 412.656 450.224 412.656C456.198 412.656 462.66 411.574 468.907 409.516C477.856 406.574 485.45 402.121 493.482 397.386L493.862 397.163C495.581 396.146 497.324 395.122 499.101 394.097C512.653 386.296 523.345 379.33 532.749 372.199C536.327 369.489 539.194 365.63 542.525 361.168C543.913 359.308 545.458 357.226 547.177 355.094L530.948 338.559L539.963 333.957L538.426 325.355L539.194 324.446C537.947 324.198 536.699 324.082 535.435 324.082C529.576 324.082 524.444 326.702 519.007 329.478C513.661 332.205 508.133 335.031 501.836 335.122L499.258 335.155L500.547 332.263C499.308 332.246 498.068 332.205 496.953 332.172H496.663C495.3 332.114 493.895 332.073 492.556 332.073C489.152 332.073 486.665 332.362 484.5 333.015C480.806 334.122 477.476 336.551 473.948 339.121C472.89 339.89 471.807 340.683 470.708 341.435L471.502 342.402L453.818 353.995L452.604 351.921L449.769 354.574L450.422 361.564L448.827 361.754C446.538 362.035 443.894 362.308 441.522 362.548L441.225 362.581C438.688 362.845 436.06 363.11 433.78 363.391L431.697 363.638L431.945 361.556C432.144 359.903 432.301 358.226 432.433 356.739V356.656C432.821 352.566 433.185 348.698 434.168 344.881C434.804 342.427 438.696 339.295 441.109 339.295C441.382 339.295 441.646 339.328 441.894 339.402C444.753 340.237 447.274 341.856 449.959 343.583C450.596 343.997 451.29 344.443 452.009 344.889C453.207 343.36 454.372 341.914 455.52 340.485C458.537 336.733 461.14 333.486 463.478 329.982C467.155 324.487 473.154 320.339 477.443 320.339C478.699 320.339 479.781 320.678 480.657 321.322C481.013 321.116 481.376 320.909 481.732 320.694C483.401 319.711 485.12 318.694 487.053 318.091C492.639 316.331 498.349 314.662 503.952 313.034L504.034 313.009C507.629 311.96 511.215 310.919 514.801 309.836C522.643 307.481 530.468 305.093 538.302 302.705L539.062 302.474C545.665 300.457 552.275 298.449 558.886 296.45C566.868 294.037 574.859 291.657 582.511 289.376L592.84 286.294L598.715 295.582L599.037 295.549L601.45 292.69L604.111 297.136L610.176 298.16C613.936 296.879 643.477 286.798 658.582 280.832L658.665 280.799C663.483 278.899 668.292 276.99 673.117 275.114C677.679 273.337 682.248 271.586 686.934 269.792L690.669 268.479L674.167 332.734L673.39 332.535L670.225 344.03L668.036 342.435L667.589 343.897C667.978 344.782 668.366 345.525 668.713 346.195C669.531 347.781 670.184 349.037 669.853 350.392C666.821 363.035 663.648 375.579 660.285 388.883L657.93 398.212C657.93 398.212 657.946 398.27 657.963 398.303L661.061 398.08C661.061 398.08 662.226 400.377 663.045 401.997L690.115 349.682L690.297 349.5C690.346 349.45 690.388 349.384 690.396 349.368C691.363 346.029 692.247 342.675 693.106 339.435C694.544 333.998 696.032 328.371 697.841 322.925C700.981 313.447 704.543 302.713 709.253 292.839C712.55 285.931 716.475 279.237 720.251 272.792L720.301 272.709C722.433 269.065 724.639 265.305 726.705 261.562C727.424 260.248 727.663 259.703 728.093 258.687C728.25 258.323 728.424 257.902 728.655 257.373C729.019 256.555 729.316 255.794 729.622 255.026C730.39 253.101 731.109 251.274 732.564 249.242L732.77 248.944L742.876 243.16C743.025 243.044 743.198 242.92 743.38 242.796L743.124 242.16C742.901 241.97 742.413 241.631 742.108 241.416C740.967 240.623 740.306 240.135 740.009 239.433L739.397 237.962L757.13 229.765C760.857 228.145 764.617 226.328 768.624 224.394C768.624 224.394 769.657 223.898 770.137 223.667L744.083 228.319L743.471 225.823L741.843 226.113L743.05 223.295C744.016 221.031 744.958 218.816 745.876 216.626L745.925 216.511C747.338 213.164 748.446 210.966 749.635 208.619C750.453 206.991 751.305 205.306 752.313 203.116C752.933 201.769 754.676 198.48 757.411 197.117C771.996 189.895 786.903 182.714 801.314 175.765C801.314 175.765 806.14 173.434 808.511 172.294L800.463 173.732L800.091 172.236L799.43 169.625L814.122 165.584L814.089 165.634ZM169.661 317.414C164.769 319.157 150.085 326.437 149.936 326.503L149.052 326.941L141.615 321.686L153.745 318.802L153.06 316.62L170.305 311.34L171.231 314.951L173.71 315.968L169.661 317.414ZM236.568 262.512L236.32 262.62C227.429 266.33 218.232 270.172 207.663 273.866L205.771 274.519L205.399 271.999L205.655 271.519C206.275 270.363 206.754 269.313 207.159 268.33L204.391 262.769L248.732 242.639L250.418 245.928L253.682 244.54L251.839 248.465C251.302 249.605 250.872 250.845 250.459 252.051L250.426 252.159C249.418 255.075 248.542 257.588 246.426 258.447C243.171 259.769 239.973 261.099 236.577 262.521L236.568 262.512ZM448.959 393.047C450.05 391.42 451.124 389.701 452.166 388.023L452.199 387.966C454.587 384.131 457.049 380.165 460.131 376.752C462.181 374.488 464.048 371.852 465.85 369.299C466.511 368.365 467.147 367.423 467.767 366.498L467.891 366.316C471.725 360.622 475.344 355.243 483.285 353.326C490.879 351.491 498.704 350.211 506.315 348.971C509.628 348.426 513.049 347.872 516.404 347.269L518.074 346.971L518.33 348.641L518.685 351.037L518.668 350.954L519.164 354.26L516.826 353.128L516.032 353.268L517.892 356.4L484.541 377.81C475.352 384.702 464.486 391.676 453.975 398.419L452.802 399.171L448.241 394.13L448.959 393.056V393.047ZM431.309 223.799L428.425 232.277C426.888 236.805 424.971 242.424 423.062 248.043C421.236 253.398 419.402 258.753 417.501 264.33L413.386 276.37L413.022 274.345L412.692 275.808L367.095 265.95L431.309 223.799ZM357.245 223.394C364.401 214.271 378.176 208.322 394.091 207.471L398.066 207.256L396.917 208.537L400.082 213.933L352.981 243.854L352.527 241.458C351.321 235.095 352.957 228.848 357.237 223.386L357.245 223.394ZM404.354 357.763C401.66 360.903 399.214 362.92 397.058 363.804L398.206 367.373L352.039 378.628L351.849 378.669C350.205 379.041 348.503 379.421 346.784 379.859L345.759 380.115L343.222 377.008L340.958 373.455L337.314 368.977L326.539 362.572C326.539 362.572 337.132 360.284 338.777 359.903C344.231 358.647 349.784 357.466 355.155 356.334L355.353 356.292C362.129 354.863 369.128 353.375 376.052 351.706C377.738 351.301 379.383 350.178 381.11 348.963L381.316 348.814C381.713 348.533 382.126 348.252 382.539 347.963L380.151 344.773L398.801 336.808L398.099 334.064L418.319 325.173L418.501 327.495C419.071 334.733 411.494 349.45 404.338 357.763H404.354ZM446.505 319.537L445.671 319.504L444.489 320.959L448.827 322.661L445.109 324.735L438.754 336.386L433.945 330.536L422.889 323.776C422.889 323.776 433.515 320.364 437.193 319.182L433.548 319.042L433.606 314.365L435.912 314.199L435.573 312.637L444.068 310.605L444.77 313.579L446.431 313.464L446.464 316.207L449.034 315.381L446.497 318.504V319.554L446.505 319.537ZM477.6 268.71C472.262 278.072 464.841 288.748 456.727 298.772C454.496 301.523 450.571 302.763 447.018 303.606L445.968 303.854C445.224 304.011 444.481 304.168 443.745 304.325H443.687C442.77 304.531 441.87 304.721 441.018 304.92C413.204 311.39 384.911 317.86 357.543 324.115L356.146 324.437C344.569 327.082 332.993 329.734 321.424 332.387C320.771 332.535 320.102 332.759 319.399 332.998L319.275 333.04C318.218 333.395 317.119 333.767 315.937 333.948C315.433 334.023 314.896 334.064 314.309 334.064C313.557 334.064 312.855 334.006 312.276 333.957L311.723 333.907C311.599 333.907 311.491 333.891 311.384 333.891L309.533 333.816L309.822 331.982C310.211 329.511 310.467 326.933 310.723 324.446C311.301 318.686 311.905 312.737 314.111 307.423C317.648 298.896 323.407 291.409 329.505 283.865C331.348 281.584 335.447 280.559 338.686 280.559C339.603 280.559 340.454 280.642 341.223 280.799C352.51 283.146 363.864 285.707 374.838 288.186L375.036 288.228C387.621 291.07 400.636 294.004 413.485 296.598C420.682 298.053 428.004 298.714 435.763 299.408H435.846L435.912 299.425L436.102 299.441C438.391 299.648 440.721 299.854 443.093 300.094L441.109 297.549L445.224 297.83L445.745 288.533C444.39 287.947 441.299 286.608 441.299 286.608C435.019 283.898 429.599 281.551 424.112 278.998C422.781 278.378 421.955 277.147 421.22 276.056C420.947 275.651 420.674 275.238 420.393 274.899L419.137 273.379L428.268 268.231L428.871 269.247L429.276 268.842L436.449 269.751L437.812 266.38L442.283 268.131L445.976 256.679C449.802 244.812 453.653 232.864 457.537 220.923L457.743 220.271C458.347 218.387 459.032 216.246 460.33 214.544C461.222 213.387 463.147 212.858 464.569 212.858C465.312 212.858 465.949 212.999 466.461 213.28C471.146 215.858 475.79 218.651 480.236 221.337C480.236 221.337 482.137 222.477 482.707 222.824L482.822 222.245L484.566 223.939C484.615 223.972 484.665 223.997 484.723 224.03L484.682 224.047L484.822 224.187L483.938 221.006C490.565 218.899 510.504 211.743 510.703 211.677L516.363 209.644L512.529 214.28C506.497 221.584 505.976 221.799 505.563 221.973C502.745 223.146 499.82 224.022 496.977 224.865C493.441 225.914 489.788 227.005 486.367 228.674L486.276 228.724L470.08 234.235C469.709 234.731 469.163 235.144 468.56 235.549L468.072 236.731L471.221 237.731L469.849 239.152C471.683 238.929 473.501 238.607 475.286 238.293C477.699 237.863 480.195 237.425 482.748 237.219L486.053 236.946L484.301 239.714C484.425 239.689 484.533 239.656 484.607 239.623L485.301 239.334L485.715 239.532C486.285 239.466 487.607 239.103 488.532 238.855C490.35 238.359 491.515 238.061 492.333 238.061C492.73 238.061 493.069 238.136 493.366 238.276L494.969 239.061L477.608 268.693L477.6 268.71ZM603.384 256.464L599.822 266.272L602.673 267.867L598.335 271.371L594.121 282.443L581.726 272.726L579.255 272.147L578.668 270.718L575.388 271.833L574.702 268.016C565.844 270.726 556.737 273.445 547.887 276.081C536.633 279.436 524.998 282.906 515.057 286.03C512.537 286.823 509.951 287.691 507.62 288.467L507.48 288.517C504.877 289.385 502.183 290.285 499.514 291.12C499.242 291.203 498.944 291.244 498.605 291.244C497.878 291.244 496.151 290.938 495.482 290.244L494.978 289.707L495.011 289.005L495.027 288.41C495.06 287.03 495.102 285.476 495.92 284.195C505.654 266.834 516.842 248.861 530.121 229.261L530.435 228.798L557.911 218.849L558.63 219.8C559.935 221.527 554.465 227.658 553.151 228.658C552.969 228.798 552.531 229.195 552.531 229.195L524.692 268.115L526.841 266.371L534.17 265.933L535.236 267.851L604.863 245.829L605.557 246.812L607.548 249.589L603.375 256.455L603.384 256.464Z" fill="#EAE7DD"/>
<path d="M607.036 470.061C606.986 469.557 606.937 469.062 606.879 468.599C606.639 466.459 606.416 464.442 606.796 462.624C607.267 460.369 608.069 458.055 608.837 455.816C610.135 452.081 611.473 448.213 611.44 444.255C611.407 440.124 609.614 436.124 607.879 432.257C607.176 430.703 606.457 429.092 605.879 427.539C604.97 425.068 604.003 422.581 603.061 420.176C601.152 415.292 599.186 410.244 597.665 405.17C595.302 397.27 593.12 389.189 591.013 381.363L590.989 381.206L590.947 381.132C589.435 375.538 587.873 369.753 586.262 364.085C585.807 362.498 584.932 361.176 583.816 359.499L583.717 359.358C583.196 358.573 582.61 357.689 581.99 356.64L580.271 353.748L565.43 391.378L564.67 388.09L561.935 390.627C561.084 389.784 560.2 388.974 559.332 388.172C556.63 385.693 554.076 383.347 552.812 380.521C548.383 370.58 551.903 361.903 555.638 352.723C557.993 346.922 560.431 340.931 560.894 334.42L560.935 333.792L559.489 331.924C559.555 331.437 559.629 331.007 559.695 330.61C559.91 329.272 560.076 328.247 559.985 327.189C559.894 326.115 559.059 325.57 558.233 325.132L567.256 303.697L566.124 304.126C568.017 302.689 569.958 301.284 571.966 300.135C573.115 299.483 574.693 299.053 575.999 299.053C576.486 299.053 576.924 299.111 577.271 299.226C578.511 299.64 579.932 300.044 581.304 300.425C585.13 301.499 590.352 302.97 591.038 304.92C596.046 319.199 600.144 334.089 604.102 348.492L604.218 348.913C605.515 353.624 606.846 358.482 608.201 363.259C608.614 364.713 608.969 366.217 609.259 367.423C609.259 367.423 609.515 368.506 609.606 368.853L610.812 373.72L640.742 301.722L644.27 299.276L644.394 301.73L654.087 294.649L663.276 297.805L662.697 302.176L664.557 301.383L665.16 305.928L621.042 445.073L620.075 447.081L616.72 457.022L618.406 443.503L614.44 442.305L607.556 470.037L607.028 470.053L607.036 470.061Z" fill="#EAE7DD"/>
<path fill-rule="evenodd" clip-rule="evenodd" d="M467.866 197.819L467.849 197.811L467.841 197.795L467.866 197.819Z" fill="#EAE7DD"/>
<path fill-rule="evenodd" clip-rule="evenodd" d="M150.234 339.047L149.911 338.832C149.977 338.923 150.085 338.997 150.234 339.047Z" fill="#EAE7DD"/>
<path fill-rule="evenodd" clip-rule="evenodd" d="M295.031 413.689L295.171 413.582C294.915 413.598 294.8 413.656 295.031 413.689Z" fill="#EAE7DD"/>
<path d="M372.898 137.541L366.034 144.932C365.887 145.091 365.705 145.22 365.507 145.309C365.306 145.399 365.093 145.441 364.872 145.441H332.332C332.177 145.441 332.026 145.395 331.894 145.309C331.762 145.224 331.661 145.103 331.599 144.959C331.537 144.815 331.518 144.66 331.545 144.504C331.572 144.348 331.642 144.208 331.747 144.092L338.603 136.701C338.751 136.541 338.933 136.413 339.13 136.324C339.332 136.234 339.545 136.191 339.765 136.191H372.306C372.461 136.191 372.616 136.23 372.747 136.316C372.879 136.401 372.984 136.522 373.046 136.666C373.108 136.81 373.127 136.969 373.1 137.125C373.073 137.28 373.003 137.424 372.895 137.537L372.898 137.541Z" fill="#EAE7DD"/>
<path d="M366.034 122.655C365.887 122.495 365.705 122.367 365.507 122.281C365.306 122.192 365.093 122.149 364.872 122.145H332.332C332.177 122.145 332.026 122.192 331.894 122.277C331.762 122.363 331.661 122.484 331.599 122.627C331.537 122.771 331.518 122.927 331.545 123.083C331.572 123.238 331.642 123.378 331.747 123.495L338.603 130.889C338.751 131.049 338.933 131.177 339.13 131.263C339.332 131.352 339.545 131.395 339.765 131.399H372.306C372.461 131.399 372.612 131.352 372.74 131.267C372.867 131.181 372.972 131.061 373.03 130.917C373.092 130.773 373.112 130.617 373.084 130.462C373.057 130.31 372.988 130.166 372.883 130.053L366.03 122.659L366.034 122.655Z" fill="#EAE7DD"/>
<path d="M332.332 117.345H364.872C365.089 117.345 365.306 117.298 365.507 117.213C365.709 117.123 365.887 116.999 366.034 116.835L372.898 109.445C373.007 109.332 373.077 109.188 373.104 109.032C373.131 108.877 373.112 108.717 373.05 108.573C372.988 108.43 372.883 108.309 372.751 108.223C372.62 108.138 372.465 108.095 372.31 108.099H339.765C339.549 108.099 339.332 108.146 339.13 108.231C338.929 108.321 338.751 108.445 338.603 108.608L331.747 115.999C331.642 116.112 331.572 116.256 331.545 116.411C331.518 116.563 331.537 116.723 331.599 116.867C331.661 117.011 331.762 117.131 331.894 117.217C332.026 117.302 332.177 117.349 332.332 117.349V117.345Z" fill="#EAE7DD"/>
<path d="M412.571 123.892H395.161V118.135H417.095V112.378H395.103C394.352 112.374 393.608 112.518 392.911 112.802C392.213 113.086 391.582 113.506 391.047 114.039C390.513 114.568 390.087 115.202 389.796 115.895C389.506 116.591 389.351 117.338 389.351 118.092V123.927C389.351 124.682 389.506 125.429 389.796 126.125C390.087 126.821 390.513 127.455 391.047 127.984C391.582 128.517 392.213 128.937 392.911 129.221C393.608 129.505 394.352 129.653 395.103 129.649H412.536V135.406H389.765V141.163H412.571C413.322 141.167 414.066 141.023 414.763 140.739C415.46 140.455 416.092 140.035 416.626 139.502C417.161 138.973 417.587 138.339 417.878 137.647C418.168 136.95 418.323 136.203 418.323 135.449V129.614C418.323 128.859 418.168 128.113 417.878 127.416C417.587 126.72 417.161 126.086 416.626 125.557C416.092 125.024 415.46 124.604 414.763 124.32C414.066 124.036 413.322 123.888 412.571 123.892Z" fill="#EAE7DD"/>
<path fill-rule="evenodd" clip-rule="evenodd" d="M428.821 112.377H446.296C447.048 112.373 447.792 112.517 448.489 112.801C449.186 113.089 449.818 113.509 450.352 114.038C450.887 114.567 451.313 115.197 451.603 115.894C451.894 116.59 452.045 117.337 452.049 118.091V135.448C452.045 136.203 451.894 136.949 451.603 137.646C451.313 138.338 450.887 138.972 450.352 139.501C449.818 140.034 449.186 140.454 448.489 140.738C447.792 141.022 447.048 141.166 446.296 141.162H428.821C428.07 141.17 427.322 141.026 426.625 140.742C425.928 140.458 425.292 140.038 424.758 139.509C424.219 138.976 423.793 138.346 423.503 137.65C423.208 136.949 423.053 136.203 423.053 135.448V118.091C423.057 117.333 423.212 116.586 423.503 115.89C423.797 115.193 424.223 114.559 424.758 114.03C425.292 113.501 425.928 113.081 426.625 112.797C427.322 112.513 428.07 112.369 428.821 112.377ZM428.864 135.405H446.254L446.246 118.134H428.864V135.405Z" fill="#EAE7DD"/>
<path fill-rule="evenodd" clip-rule="evenodd" d="M490.458 112.378C489.707 112.374 488.963 112.518 488.265 112.802C487.568 113.086 486.937 113.506 486.402 114.039C485.868 114.568 485.441 115.202 485.151 115.894C484.86 116.59 484.709 117.337 484.705 118.092V141.162H490.516V131.706H507.484V141.162H513.294V118.092C513.291 117.333 513.136 116.586 512.845 115.886C512.551 115.19 512.124 114.556 511.586 114.023C511.048 113.49 510.408 113.074 509.711 112.79C509.01 112.506 508.262 112.366 507.507 112.378H490.458ZM507.46 125.949H490.493V118.135H507.46V125.949Z" fill="#EAE7DD"/>
<path fill-rule="evenodd" clip-rule="evenodd" d="M558.308 112.378H575.346C576.097 112.374 576.841 112.518 577.538 112.802C578.235 113.09 578.867 113.51 579.402 114.039C579.936 114.568 580.362 115.198 580.653 115.895C580.947 116.591 581.098 117.338 581.102 118.092V141.163H575.291V131.707H558.363V141.163H552.552V118.092C552.556 117.338 552.711 116.591 553.001 115.895C553.292 115.202 553.718 114.568 554.253 114.039C554.787 113.506 555.419 113.086 556.116 112.802C556.813 112.518 557.557 112.374 558.308 112.378ZM558.328 125.95H575.295V118.135H558.328V125.95Z" fill="#EAE7DD"/>
<path d="M541.593 135.406H539.269L530.959 114.79C530.676 114.078 530.184 113.467 529.553 113.039C528.921 112.611 528.174 112.378 527.411 112.378H522.255C521.755 112.378 521.255 112.471 520.794 112.662C520.329 112.853 519.907 113.133 519.551 113.487C519.194 113.841 518.911 114.261 518.718 114.724C518.524 115.187 518.423 115.684 518.419 116.19V141.163H524.23V118.135H526.555L534.86 138.751C535.151 139.459 535.643 140.07 536.278 140.494C536.913 140.922 537.661 141.147 538.424 141.147H543.58C544.08 141.147 544.58 141.054 545.041 140.863C545.505 140.673 545.928 140.393 546.284 140.039C546.64 139.685 546.923 139.265 547.117 138.802C547.311 138.339 547.411 137.841 547.415 137.335V112.378H541.593V135.406Z" fill="#EAE7DD"/>
<path d="M457.182 112.378H462.993V135.406H480.386V141.163H462.954C462.202 141.171 461.455 141.027 460.757 140.743C460.056 140.459 459.421 140.039 458.886 139.51C458.352 138.981 457.926 138.347 457.631 137.65C457.337 136.954 457.182 136.203 457.182 135.449V112.378Z" fill="#EAE7DD"/>
<path d="M429.534 475.715C429.534 476.331 429.384 476.863 429.086 477.311C428.862 477.61 428.526 477.983 428.078 478.431C427.648 478.879 427.303 479.178 427.042 479.327C426.5 479.663 425.921 479.831 425.305 479.831H421.049C420.433 479.831 419.854 479.663 419.313 479.327C419.052 479.178 418.688 478.879 418.221 478.431C417.773 477.965 417.455 477.591 417.269 477.311C416.97 476.863 416.821 476.331 416.821 475.715V466.95C416.821 466.334 416.97 465.802 417.269 465.354C417.455 465.074 417.773 464.71 418.221 464.262C418.688 463.795 419.052 463.487 419.313 463.338C419.854 463.002 420.433 462.834 421.049 462.834H425.305C425.921 462.834 426.5 463.002 427.042 463.338C427.303 463.487 427.648 463.786 428.078 464.234C428.526 464.682 428.862 465.056 429.086 465.354C429.384 465.802 429.534 466.334 429.534 466.95V475.715ZM419.761 467.034V475.687C419.761 475.743 419.77 475.78 419.789 475.799C420.162 476.359 420.573 476.761 421.021 477.003C421.058 477.022 421.105 477.031 421.161 477.031H425.193C425.249 477.031 425.296 477.022 425.333 477.003C425.781 476.761 426.192 476.359 426.566 475.799L426.594 475.687V467.034C426.594 466.96 426.584 466.913 426.566 466.894C426.173 466.316 425.763 465.905 425.333 465.662C425.296 465.644 425.249 465.634 425.193 465.634H421.161C421.086 465.634 421.04 465.644 421.021 465.662C420.592 465.905 420.181 466.316 419.789 466.894L419.761 467.034Z" fill="#EAE7DD"/>
<path d="M447.928 479.691H444.819L439.023 468.574V479.691H436.083V462.946H439.247L444.987 474.203V462.946H447.928V479.691Z" fill="#EAE7DD"/>
<path d="M465.132 479.691H454.771V462.946H457.711V476.891H465.132V479.691Z" fill="#EAE7DD"/>
<path d="M473.966 479.691H471.026V462.946H473.966V479.691Z" fill="#EAE7DD"/>
<path d="M492.644 479.691H489.536L483.739 468.574V479.691H480.799V462.946H483.963L489.704 474.203V462.946H492.644V479.691Z" fill="#EAE7DD"/>
<path d="M510.016 479.691H499.487V462.946H510.016V465.746H502.428V469.975H509.484V472.775H502.428V476.891H510.016V479.691Z" fill="#EAE7DD"/>
<path d="M396.985 507.694H394.045V500.777H387.94V507.694H385V490.948H387.94V497.977H394.045V490.948H396.985V507.694Z" fill="#EAE7DD"/>
<path d="M417.014 507.694H413.878L412.646 504.138H406.289L405.057 507.694H401.921L407.773 490.948H411.19L417.014 507.694ZM411.722 501.337L409.482 494.729L407.213 501.337H411.722Z" fill="#EAE7DD"/>
<path d="M433.867 504.446C433.68 504.875 433.484 505.23 433.279 505.51C432.121 507.059 430.936 507.834 429.723 507.834H426.222C425.606 507.834 425.028 507.666 424.486 507.33C424.206 507.162 423.842 506.854 423.394 506.406C422.946 505.958 422.629 505.603 422.442 505.342C422.143 504.894 421.994 504.362 421.994 503.746V494.925C421.994 494.327 422.143 493.805 422.442 493.357C422.629 493.077 422.946 492.713 423.394 492.265C423.861 491.798 424.225 491.49 424.486 491.341C425.084 491.004 425.662 490.836 426.222 490.836H429.723C430.917 490.836 432.103 491.611 433.279 493.161C433.391 493.31 433.587 493.637 433.867 494.141L431.011 494.953C430.451 494.262 430.031 493.833 429.751 493.665C429.732 493.646 429.695 493.637 429.639 493.637H426.334L426.222 493.665C425.737 493.926 425.317 494.337 424.962 494.897C424.943 494.934 424.934 495.037 424.934 495.205V503.718C424.934 503.867 425.084 504.091 425.382 504.39C425.7 504.67 425.98 504.875 426.222 505.006C426.241 505.024 426.306 505.034 426.418 505.034H429.611C429.667 505.034 429.713 505.024 429.751 505.006C429.919 504.931 430.105 504.782 430.311 504.558C430.535 504.334 430.712 504.128 430.843 503.942L431.011 503.69L433.867 504.446Z" fill="#EAE7DD"/>
<path d="M452.929 507.694H449.317L443.52 500.693H443.212V507.694H440.272V490.948H443.212V497.921H443.492C444.164 497.137 445.145 495.961 446.433 494.393C447.721 492.825 448.673 491.677 449.289 490.948H452.901L445.929 499.293C446.227 499.648 447.263 500.899 449.037 503.046C450.829 505.192 452.126 506.742 452.929 507.694Z" fill="#EAE7DD"/>
<path d="M471.357 507.694H468.22L466.988 504.138H460.632L459.4 507.694H456.263L462.116 490.948H465.532L471.357 507.694ZM466.064 501.337L463.824 494.729L461.556 501.337H466.064Z" fill="#EAE7DD"/>
<path d="M485.922 493.749H481.385V507.694H478.445V493.749H473.909V490.948H485.922V493.749Z" fill="#EAE7DD"/>
<path d="M503.701 507.694H500.761V500.777H494.656V507.694H491.716V490.948H494.656V497.977H500.761V490.948H503.701V507.694Z" fill="#EAE7DD"/>
<path d="M523.282 503.718C523.282 504.334 523.133 504.866 522.834 505.314C522.61 505.612 522.274 505.986 521.826 506.434C521.396 506.882 521.051 507.181 520.79 507.33C520.248 507.666 519.67 507.834 519.054 507.834H514.797C514.181 507.834 513.602 507.666 513.061 507.33C512.8 507.181 512.436 506.882 511.969 506.434C511.521 505.967 511.204 505.594 511.017 505.314C510.718 504.866 510.569 504.334 510.569 503.718V494.953C510.569 494.337 510.718 493.805 511.017 493.357C511.204 493.077 511.521 492.713 511.969 492.265C512.436 491.798 512.8 491.49 513.061 491.341C513.602 491.004 514.181 490.836 514.797 490.836H519.054C519.67 490.836 520.248 491.004 520.79 491.341C521.051 491.49 521.396 491.789 521.826 492.237C522.274 492.685 522.61 493.058 522.834 493.357C523.133 493.805 523.282 494.337 523.282 494.953V503.718ZM513.509 495.037V503.69C513.509 503.746 513.518 503.783 513.537 503.802C513.91 504.362 514.321 504.763 514.769 505.006C514.807 505.024 514.853 505.034 514.909 505.034H518.942C518.998 505.034 519.044 505.024 519.082 505.006C519.53 504.763 519.94 504.362 520.314 503.802L520.342 503.69V495.037C520.342 494.962 520.332 494.916 520.314 494.897C519.922 494.318 519.511 493.907 519.082 493.665C519.044 493.646 518.998 493.637 518.942 493.637H514.909C514.835 493.637 514.788 493.646 514.769 493.665C514.34 493.907 513.929 494.318 513.537 494.897L513.509 495.037Z" fill="#EAE7DD"/>
<path d="M541.676 507.694H538.568L532.771 496.577V507.694H529.831V490.948H532.995L538.736 502.205V490.948H541.676V507.694Z" fill="#EAE7DD"/>
</svg>
