<?xml version="1.0" encoding="utf-8"?>
<!-- Generator: Adobe Illustrator 27.0.1, SVG Export Plug-In . SVG Version: 6.00 Build 0)  -->
<svg version="1.1" xmlns="http://www.w3.org/2000/svg" xmlns:xlink="http://www.w3.org/1999/xlink" x="0px" y="0px"
	 viewBox="0 0 1920 1080" style="enable-background:new 0 0 1920 1080;" xml:space="preserve">
<style type="text/css">
	.st0{display:none;}
	.st1{display:inline;fill:#1F1A2F;}
	.st2{fill:#D6C6FF;}
	.st3{fill:url(#SVGID_1_);}
	.st4{fill:url(#SVGID_00000054966887764311097350000018155757672009534619_);}
	.st5{fill:url(#SVGID_00000016076971196972230880000016113528340127216297_);}
	.st6{fill:url(#SVGID_00000066499736860663440470000015028535886055757496_);}
</style>
<g id="Layer_3" class="st0">
	<rect class="st1" width="1920" height="1080"/>
</g>
<g id="Layer_2">
	<g>
		<path class="st2" d="M688,569.64c0-40.27,29.22-69.63,67.67-69.63c24.05,0,41.66,10.49,51.73,24.89v-84.73h22.23v196.86H807.4
			v-21.81c-10.07,14.26-27.68,24.61-51.73,24.61C717.22,639.83,688,609.91,688,569.64z M710.09,569.64
			c0,27.68,19.85,50.05,47.82,50.05c28.66,0,49.77-22.37,49.77-50.05c0-27.82-21.11-49.49-49.77-49.49
			C729.94,520.15,710.09,541.82,710.09,569.64z"/>
		<path class="st2" d="M933.65,500.01c33.55,0,64.73,23.63,64.73,63.06c0,4.05-0.14,8.53-0.7,12.3H887.09
			c1.4,24.47,19.71,44.18,47.68,44.18c18.87,0,32.72-8.81,42.36-22.51l16.92,12.3c-12.3,19.01-34.11,30.48-59.28,30.48
			c-40.41,0-70.19-30.48-70.19-69.91S895.48,500.01,933.65,500.01z M887.93,557.06h88.22c-1.54-22.09-19.57-36.77-42.36-36.77
			C910.58,520.29,891.29,534.97,887.93,557.06z"/>
		<path class="st2" d="M1024.53,598.72c0-24.89,23.35-42.22,58.58-42.22c14.82,0,28.38,3.64,38.17,7.83v-9.79
			c0-20.97-15.8-33.83-37.61-33.83c-16.22,0-30.76,7.27-41.52,19.85l-14.4-13.7c12.02-16.22,34.11-26.84,55.79-26.84
			c36.35,0,59.84,20.69,59.84,52.71v84.31h-21.81v-20.41c-8.25,13.7-24.47,23.21-43.9,23.21
			C1046.62,639.83,1024.53,624.87,1024.53,598.72z M1047.04,598.3c0,15.1,13.84,23.21,32.02,23.21c24.89,0,42.22-19.15,42.22-38.73
			c-8.81-5.17-23.63-8.81-37.05-8.81C1062.7,573.97,1047.04,582.5,1047.04,598.3z"/>
		<path class="st2" d="M1186.29,637.03V502.81h22.37v20.13c7.55-12.44,23.49-22.93,44.88-22.93c35.37,0,56.62,20.83,56.62,55.37
			v81.65h-22.23v-76.2c0-26.14-13.56-39.85-37.89-39.85c-22.93,0-41.52,15.8-41.52,40.27v75.78H1186.29z"/>
		<path class="st2" d="M1359.8,597.18c7.41,13.42,20.69,22.65,40.13,22.65c17.48,0,29.92-7.41,29.92-18.88
			c0-12.44-9.23-16.36-31.88-21.39c-28.66-6.43-49.07-15.24-49.07-40.97c0-23.49,22.23-38.59,49.91-38.59
			c24.19,0,42.08,11.74,50.05,24.89l-15.24,12.58c-6.43-9.37-17.48-17.48-34.81-17.48c-17.06,0-27.96,7.13-27.96,18.18
			c0,12.86,10.77,16.36,33.56,21.81c28.94,6.99,47.81,16.22,47.81,40.97c0,23.77-24.05,38.87-52.29,38.87
			c-27.82,0-47.54-11.74-57.18-30.2L1359.8,597.18z"/>
		<path class="st2" d="M1488.15,440.17h22.23v196.86h-22.23V440.17z"/>
		<path class="st2" d="M1566.16,444.09c8.11,0,13.98,5.59,13.98,13.7s-5.87,13.84-13.98,13.84c-8.11,0-13.7-5.73-13.7-13.84
			S1558.05,444.09,1566.16,444.09z M1577.35,502.81v134.22h-22.23V502.81H1577.35z"/>
		<path class="st2" d="M1628.8,597.18c7.41,13.42,20.69,22.65,40.13,22.65c17.48,0,29.92-7.41,29.92-18.88
			c0-12.44-9.23-16.36-31.88-21.39c-28.66-6.43-49.07-15.24-49.07-40.97c0-23.49,22.23-38.59,49.91-38.59
			c24.19,0,42.08,11.74,50.05,24.89l-15.24,12.58c-6.43-9.37-17.48-17.48-34.81-17.48c-17.06,0-27.96,7.13-27.96,18.18
			c0,12.86,10.77,16.36,33.56,21.81c28.94,6.99,47.81,16.22,47.81,40.97c0,23.77-24.05,38.87-52.29,38.87
			c-27.82,0-47.54-11.74-57.18-30.2L1628.8,597.18z"/>
		<path class="st2" d="M1739.95,521.96v-19.15h24.89v-43.06h21.95v43.06h44.32v19.15h-44.18v72.56c0,17.62,9.51,25.31,23.21,25.31
			c7.27,0,16.5-1.96,22.93-5.17l2.94,19.15c-5.73,3.22-17.34,6.01-28.24,6.01c-25.86,0-43.06-14.26-43.06-41.66v-76.2H1739.95z"/>
	</g>
</g>
<g id="Layer_4">
	<g>
		<g>
			<g>
				<linearGradient id="SVGID_1_" gradientUnits="userSpaceOnUse" x1="418.0804" y1="593.6691" x2="199.3537" y2="467.3871">
					<stop  offset="0" style="stop-color:#EA96FF"/>
					<stop  offset="0.2836" style="stop-color:#BA9EFF"/>
					<stop  offset="0.6786" style="stop-color:#BA9EFF"/>
					<stop  offset="1" style="stop-color:#C8F0FF"/>
				</linearGradient>
				<path class="st3" d="M203.75,631.63l47.42-216.23c3.53-15.81,8.14-36.48,6.81-49.55c22.34,2.86,61.84,10.83,84.95,15.98
					c74.99,16.74,107.14,72.86,85.61,169.33c-22.35,100.12-74.32,132.77-147.69,116.4l-62.42-13.94
					C206.66,651,201.31,642.57,203.75,631.63z M282.56,652.2c53.1,11.85,89.66-16.58,109.84-106.97
					c20.09-89.99,0.18-136.14-52.92-147.99l-47.83-10.68l-56.51,255.05L282.56,652.2z"/>
			</g>
			<g>
				
					<linearGradient id="SVGID_00000008139831188484939550000014861842200651054737_" gradientUnits="userSpaceOnUse" x1="558.0099" y1="600.3492" x2="430.1205" y2="526.5122">
					<stop  offset="0" style="stop-color:#EA96FF"/>
					<stop  offset="0.2836" style="stop-color:#BA9EFF"/>
					<stop  offset="0.6786" style="stop-color:#BA9EFF"/>
					<stop  offset="1" style="stop-color:#C8F0FF"/>
				</linearGradient>
				<path style="fill:url(#SVGID_00000008139831188484939550000014861842200651054737_);" d="M438.45,659.52l52.94-237.13
					c2.53-11.35,12.09-16.03,23.03-13.58c9.32,2.08,14.41,7.9,17.02,11.46c-8.21,13.91-13.59,36.12-22.92,77.87l-37.28,167
					c-3.08,13.78,0.47,22.66,10.61,24.92c5.67,1.27,12.79-0.12,16.9-5.16c2.25,5.18,2.38,10.32,1.65,13.56
					c-2.9,12.97-18.08,18.09-33.48,14.65C442.59,707.68,432.11,687.89,438.45,659.52z"/>
			</g>
			<g>
				
					<linearGradient id="SVGID_00000002348788365417974260000014051135900649908873_" gradientUnits="userSpaceOnUse" x1="218.1366" y1="531.4736" x2="157.3917" y2="496.4025">
					<stop  offset="0" style="stop-color:#EA96FF"/>
					<stop  offset="0.2836" style="stop-color:#BA9EFF"/>
					<stop  offset="0.6786" style="stop-color:#BA9EFF"/>
					<stop  offset="1" style="stop-color:#C8F0FF"/>
				</linearGradient>
				<path style="fill:url(#SVGID_00000002348788365417974260000014051135900649908873_);" d="M158.69,579.36
					c1.63-7.3,9.56-12.33,16.86-10.7c7.3,1.63,12.33,9.56,10.7,16.86s-9.56,12.33-16.86,10.7
					C162.1,594.59,157.06,586.66,158.69,579.36z M189.28,442.36c1.63-7.3,9.56-12.33,16.86-10.71c7.3,1.63,12.33,9.56,10.7,16.86
					c-1.63,7.3-9.56,12.33-16.86,10.71C192.68,457.59,187.65,449.65,189.28,442.36z"/>
			</g>
			<g>
				
					<linearGradient id="SVGID_00000011716204336880418360000016716045097011088005_" gradientUnits="userSpaceOnUse" x1="591.0504" y1="614.7242" x2="530.3052" y2="579.6529">
					<stop  offset="0" style="stop-color:#EA96FF"/>
					<stop  offset="0.2836" style="stop-color:#BA9EFF"/>
					<stop  offset="0.6786" style="stop-color:#BA9EFF"/>
					<stop  offset="1" style="stop-color:#C8F0FF"/>
				</linearGradient>
				<path style="fill:url(#SVGID_00000011716204336880418360000016716045097011088005_);" d="M531.6,662.62
					c1.63-7.3,9.56-12.33,16.86-10.71c7.3,1.63,12.33,9.56,10.7,16.86c-1.63,7.3-9.56,12.33-16.86,10.7
					C535.01,677.85,529.97,669.91,531.6,662.62z M562.19,525.61c1.63-7.3,9.56-12.33,16.86-10.71c7.3,1.63,12.33,9.56,10.71,16.86
					c-1.63,7.3-9.56,12.33-16.86,10.7C565.6,540.84,560.56,532.9,562.19,525.61z"/>
			</g>
		</g>
		<g>
			<path class="st2" d="M374.22,297.67c32.72,0,64.46,6.41,94.32,19.04c28.86,12.2,54.77,29.68,77.03,51.94
				c22.26,22.26,39.73,48.18,51.94,77.03c12.63,29.87,19.04,61.6,19.04,94.32s-6.41,64.46-19.04,94.32
				c-12.2,28.86-29.68,54.77-51.94,77.03c-22.26,22.26-48.18,39.73-77.03,51.94c-29.87,12.63-61.6,19.04-94.32,19.04
				s-64.46-6.41-94.32-19.04c-28.86-12.2-54.77-29.68-77.03-51.94c-22.26-22.26-39.73-48.18-51.94-77.03
				c-12.63-29.87-19.04-61.6-19.04-94.32s6.41-64.46,19.04-94.32c12.2-28.86,29.68-54.77,51.94-77.03
				c22.26-22.26,48.18-39.73,77.03-51.94C309.77,304.07,341.5,297.67,374.22,297.67 M374.22,285.67
				c-140.47,0-254.33,113.87-254.33,254.33s113.87,254.34,254.33,254.34S628.56,680.47,628.56,540S514.69,285.67,374.22,285.67
				L374.22,285.67z"/>
		</g>
	</g>
</g>
</svg>
